<?xml version="1.0" standalone="no"?>
<!DOCTYPE svg PUBLIC "-//W3C//DTD SVG 1.0//EN" "http://www.w3.org/TR/2001/REC-SVG-20010904/DTD/svg10.dtd">
<svg xmlns="http://www.w3.org/2000/svg" xmlns:xlink="http://www.w3.org/1999/xlink" id="body_1" width="500" height="500">

<g transform="matrix(4.347826 0 0 6.25 0 0)">
    <path transform="matrix(1 0 0 1 0 0)"  d="M45.28149 37.59626L46.75813 37.59626L46.75813 36.12262L45.28149 36.12262L45.28149 37.59626" stroke="none" fill="#929497" fill-rule="nonzero" />
    <path transform="matrix(1 0 0 1 0 0)"  d="M47.01907 37.59626L48.48449 37.59626L48.48449 36.12262L47.01907 36.12262L47.01907 37.59626" stroke="none" fill="#929497" fill-rule="nonzero" />
    <path transform="matrix(1 0 0 1 0 0)"  d="M48.74542 37.59626L50.22505 37.59626L50.22505 36.12262L48.74542 36.12262L48.74542 37.59626" stroke="none" fill="#929497" fill-rule="nonzero" />
    <path transform="matrix(1 0 0 1 0 0)"  d="M50.48 37.59626L51.95663 37.59626L51.95663 36.12262L50.48 36.12262L50.48 37.59626" stroke="none" fill="#929497" fill-rule="nonzero" />
    <path transform="matrix(1 0 0 1 0 0)"  d="M45.28149 35.89309L46.75813 35.89309L46.75813 34.4172L45.28149 34.4172L45.28149 35.89309" stroke="none" fill="#929497" fill-rule="nonzero" />
    <path transform="matrix(1 0 0 1 0 0)"  d="M47.01907 35.89309L48.48449 35.89309L48.48449 34.4172L47.01907 34.4172L47.01907 35.89309" stroke="none" fill="#929497" fill-rule="nonzero" />
    <path transform="matrix(1 0 0 1 0 0)"  d="M48.74542 35.89309L50.22505 35.89309L50.22505 34.4172L48.74542 34.4172L48.74542 35.89309" stroke="none" fill="#929497" fill-rule="nonzero" />
    <path transform="matrix(1 0 0 1 0 0)"  d="M50.48 35.89309L51.95663 35.89309L51.95663 34.4172L50.48 34.4172L50.48 35.89309" stroke="none" fill="#929497" fill-rule="nonzero" />
    <path transform="matrix(1 0 0 1 0 0)"  d="M53.94542 35.89309L55.41906 35.89309L55.41906 34.4172L53.94542 34.4172L53.94542 35.89309" stroke="none" fill="#929497" fill-rule="nonzero" />
    <path transform="matrix(1 0 0 1 0 0)"  d="M45.28149 34.19365L46.75813 34.19365L46.75813 32.72075L45.28149 32.72075L45.28149 34.19365" stroke="none" fill="#929497" fill-rule="nonzero" />
    <path transform="matrix(1 0 0 1 0 0)"  d="M47.01907 34.19365L48.48449 34.19365L48.48449 32.72075L47.01907 32.72075L47.01907 34.19365" stroke="none" fill="#929497" fill-rule="nonzero" />
    <path transform="matrix(1 0 0 1 0 0)"  d="M50.48 34.19365L51.95663 34.19365L51.95663 32.72075L50.48 32.72075L50.48 34.19365" stroke="none" fill="#929497" fill-rule="nonzero" />
    <path transform="matrix(1 0 0 1 0 0)"  d="M52.21458 34.19365L53.68748 34.19365L53.68748 32.72075L52.21458 32.72075L52.21458 34.19365" stroke="none" fill="#929497" fill-rule="nonzero" />
    <path transform="matrix(1 0 0 1 0 0)"  d="M53.94542 34.19365L55.41906 34.19365L55.41906 32.72075L53.94542 32.72075L53.94542 34.19365" stroke="none" fill="#929497" fill-rule="nonzero" />
    <path transform="matrix(1 0 0 1 0 0)"  d="M47.01907 32.49196L48.48449 32.49196L48.48449 31.01907L47.01907 31.01907L47.01907 32.49196" stroke="none" fill="#929497" fill-rule="nonzero" />
    <path transform="matrix(1 0 0 1 0 0)"  d="M48.74542 32.49196L50.22505 32.49196L50.22505 31.01907L48.74542 31.01907L48.74542 32.49196" stroke="none" fill="#929497" fill-rule="nonzero" />
    <path transform="matrix(1 0 0 1 0 0)"  d="M50.48 32.49196L51.95663 32.49196L51.95663 31.01907L50.48 31.01907L50.48 32.49196" stroke="none" fill="#929497" fill-rule="nonzero" />
    <path transform="matrix(1 0 0 1 0 0)"  d="M52.21458 32.49196L53.68748 32.49196L53.68748 31.01907L52.21458 31.01907L52.21458 32.49196" stroke="none" fill="#929497" fill-rule="nonzero" />
    <path transform="matrix(1 0 0 1 0 0)"  d="M55.67551 32.49196L57.15589 32.49196L57.15589 31.01907L55.67551 31.01907L55.67551 32.49196" stroke="none" fill="#929497" fill-rule="nonzero" />
    <path transform="matrix(1 0 0 1 0 0)"  d="M47.01907 30.79551L48.48449 30.79551L48.48449 29.31813L47.01907 29.31813L47.01907 30.79551" stroke="none" fill="#929497" fill-rule="nonzero" />
    <path transform="matrix(1 0 0 1 0 0)"  d="M48.74542 30.79551L50.22505 30.79551L50.22505 29.31813L48.74542 29.31813L48.74542 30.79551" stroke="none" fill="#929497" fill-rule="nonzero" />
    <path transform="matrix(1 0 0 1 0 0)"  d="M50.48 30.79551L51.95663 30.79551L51.95663 29.31813L50.48 29.31813L50.48 30.79551" stroke="none" fill="#929497" fill-rule="nonzero" />
    <path transform="matrix(1 0 0 1 0 0)"  d="M52.21458 30.79551L53.68748 30.79551L53.68748 29.31813L52.21458 29.31813L52.21458 30.79551" stroke="none" fill="#929497" fill-rule="nonzero" />
    <path transform="matrix(1 0 0 1 0 0)"  d="M53.94542 30.79551L55.41906 30.79551L55.41906 29.31813L53.94542 29.31813L53.94542 30.79551" stroke="none" fill="#929497" fill-rule="nonzero" />
    <path transform="matrix(1 0 0 1 0 0)"  d="M55.67551 30.79551L57.15589 30.79551L57.15589 29.31813L55.67551 29.31813L55.67551 30.79551" stroke="none" fill="#929497" fill-rule="nonzero" />
    <path transform="matrix(1 0 0 1 0 0)"  d="M57.40636 30.79551L58.8815 30.79551L58.8815 29.31813L57.40636 29.31813L57.40636 30.79551" stroke="none" fill="#929497" fill-rule="nonzero" />
    <path transform="matrix(1 0 0 1 0 0)"  d="M60.87851 30.79551L62.35664 30.79551L62.35664 29.31813L60.87851 29.31813L60.87851 30.79551" stroke="none" fill="#929497" fill-rule="nonzero" />
    <path transform="matrix(1 0 0 1 0 0)"  d="M50.48 29.09383L51.95663 29.09383L51.95663 27.62019L50.48 27.62019L50.48 29.09383" stroke="none" fill="#929497" fill-rule="nonzero" />
    <path transform="matrix(1 0 0 1 0 0)"  d="M52.21458 29.09383L53.68748 29.09383L53.68748 27.62019L52.21458 27.62019L52.21458 29.09383" stroke="none" fill="#929497" fill-rule="nonzero" />
    <path transform="matrix(1 0 0 1 0 0)"  d="M55.67551 29.09383L57.15589 29.09383L57.15589 27.62019L55.67551 27.62019L55.67551 29.09383" stroke="none" fill="#929497" fill-rule="nonzero" />
    <path transform="matrix(1 0 0 1 0 0)"  d="M59.14243 29.09383L60.61682 29.09383L60.61682 27.62019L59.14243 27.62019L59.14243 29.09383" stroke="none" fill="#929497" fill-rule="nonzero" />
    <path transform="matrix(1 0 0 1 0 0)"  d="M48.74542 27.39514L50.22505 27.39514L50.22505 25.91925L48.74542 25.91925L48.74542 27.39514" stroke="none" fill="#929497" fill-rule="nonzero" />
    <path transform="matrix(1 0 0 1 0 0)"  d="M50.48 27.39514L51.95663 27.39514L51.95663 25.91925L50.48 25.91925L50.48 27.39514" stroke="none" fill="#929497" fill-rule="nonzero" />
    <path transform="matrix(1 0 0 1 0 0)"  d="M52.21458 27.39514L53.68748 27.39514L53.68748 25.91925L52.21458 25.91925L52.21458 27.39514" stroke="none" fill="#929497" fill-rule="nonzero" />
    <path transform="matrix(1 0 0 1 0 0)"  d="M53.94542 27.39514L55.41906 27.39514L55.41906 25.91925L53.94542 25.91925L53.94542 27.39514" stroke="none" fill="#929497" fill-rule="nonzero" />
    <path transform="matrix(1 0 0 1 0 0)"  d="M55.67551 27.39514L57.15589 27.39514L57.15589 25.91925L55.67551 25.91925L55.67551 27.39514" stroke="none" fill="#929497" fill-rule="nonzero" />
    <path transform="matrix(1 0 0 1 0 0)"  d="M59.14243 27.39514L60.61682 27.39514L60.61682 25.91925L59.14243 25.91925L59.14243 27.39514" stroke="none" fill="#929497" fill-rule="nonzero" />
    <path transform="matrix(1 0 0 1 0 0)"  d="M67.80412 27.39514L69.28374 27.39514L69.28374 25.91925L67.80412 25.91925L67.80412 27.39514" stroke="none" fill="#929497" fill-rule="nonzero" />
    <path transform="matrix(1 0 0 1 0 0)"  d="M50.48 25.69196L51.95663 25.69196L51.95663 24.21607L50.48 24.21607L50.48 25.69196" stroke="none" fill="#929497" fill-rule="nonzero" />
    <path transform="matrix(1 0 0 1 0 0)"  d="M53.94542 25.69196L55.41906 25.69196L55.41906 24.21607L53.94542 24.21607L53.94542 25.69196" stroke="none" fill="#929497" fill-rule="nonzero" />
    <path transform="matrix(1 0 0 1 0 0)"  d="M57.40636 25.69196L58.8815 25.69196L58.8815 24.21607L57.40636 24.21607L57.40636 25.69196" stroke="none" fill="#929497" fill-rule="nonzero" />
    <path transform="matrix(1 0 0 1 0 0)"  d="M60.87851 25.69196L62.35664 25.69196L62.35664 24.21607L60.87851 24.21607L60.87851 25.69196" stroke="none" fill="#929497" fill-rule="nonzero" />
    <path transform="matrix(1 0 0 1 0 0)"  d="M55.67551 23.99252L57.15589 23.99252L57.15589 22.51664L55.67551 22.51664L55.67551 23.99252" stroke="none" fill="#929497" fill-rule="nonzero" />
    <path transform="matrix(1 0 0 1 0 0)"  d="M59.14243 23.99252L60.61682 23.99252L60.61682 22.51664L59.14243 22.51664L59.14243 23.99252" stroke="none" fill="#929497" fill-rule="nonzero" />
    <path transform="matrix(1 0 0 1 0 0)"  d="M57.40636 22.29383L58.8815 22.29383L58.8815 20.81869L57.40636 20.81869L57.40636 22.29383" stroke="none" fill="#929497" fill-rule="nonzero" />
    <path transform="matrix(1 0 0 1 0 0)"  d="M60.87851 22.29383L62.35664 22.29383L62.35664 20.81869L60.87851 20.81869L60.87851 22.29383" stroke="none" fill="#929497" fill-rule="nonzero" />
    <path transform="matrix(1 0 0 1 0 0)"  d="M64.33645 22.29383L65.81608 22.29383L65.81608 20.81869L64.33645 20.81869L64.33645 22.29383" stroke="none" fill="#929497" fill-rule="nonzero" />
    <path transform="matrix(1 0 0 1 0 0)"  d="M55.67551 20.59065L57.15589 20.59065L57.15589 19.11477L55.67551 19.11477L55.67551 20.59065" stroke="none" fill="#929497" fill-rule="nonzero" />
    <path transform="matrix(1 0 0 1 0 0)"  d="M64.33645 18.89196L65.81608 18.89196L65.81608 17.41607L64.33645 17.41607L64.33645 18.89196" stroke="none" fill="#929497" fill-rule="nonzero" />
    <path transform="matrix(1 0 0 1 0 0)"  d="M69.5342 18.89196L71.01308 18.89196L71.01308 17.41607L69.5342 17.41607L69.5342 18.89196" stroke="none" fill="#929497" fill-rule="nonzero" />
    <path transform="matrix(1 0 0 1 0 0)"  d="M64.33645 17.19327L65.81608 17.19327L65.81608 15.71589L64.33645 15.71589L64.33645 17.19327" stroke="none" fill="#929497" fill-rule="nonzero" />
    <path transform="matrix(1 0 0 1 0 0)"  d="M64.33645 15.49159L65.81608 15.49159L65.81608 14.01645L64.33645 14.01645L64.33645 15.49159" stroke="none" fill="#929497" fill-rule="nonzero" />
    <path transform="matrix(1 0 0 1 0 0)"  d="M66.07552 13.7929L67.54691 13.7929L67.54691 12.31477L66.07552 12.31477L66.07552 13.7929" stroke="none" fill="#929497" fill-rule="nonzero" />
    <path transform="matrix(1 0 0 1 0 0)"  d="M41.24262 33.5514L45.01009 33.5514L45.01009 32.84411L41.24262 32.84411L41.24262 33.5514" stroke="none" fill="#231F20" fill-rule="nonzero" />
    <path transform="matrix(1 0 0 1 0 0)"  d="M37.03633 17.48441C 36.42998 17.41862 36.45989 17.60927 35.66064 17.73787C 34.85989 17.8702 34.40381 18.69787 35.20905 18.60591C 36.01204 18.50796 36.36493 18.47731 37.06998 18.18423C 37.77204 17.89936 37.03633 17.48441 37.03633 17.48441zM37.65092 20.46161C 36.81578 20.3674 36.88232 20.65151 36.65054 20.76665C 36.36493 20.90946 37.19633 21.03955 37.84307 21.01488C 38.48456 20.976 38.48456 20.55806 37.65092 20.46161zM45.0483 37.88217L45.28232 37.88217L51.37129 37.88217C 49.61503 39.85002 45.47671 43.18385 36.10325 46.51095C 19.48568 52.41675 3.244935 45.3259 12.75372 31.82535C 22.04942 18.60591 36.77989 15.49114 38.32307 15.23394C 39.85727 14.97675 42.42774 14.81974 41.17765 15.2003C 39.92456 15.59058 37.58437 16.55432 37.71671 16.90273C 37.84307 17.26011 39.38026 16.87282 40.24082 16.74273C 41.11335 16.61488 41.11335 17.22497 40.59895 17.48441C 40.08456 17.73787 39.67036 17.48441 39.98961 17.79992C 40.31335 18.12366 40.1197 18.34647 39.60456 18.57376C 39.09391 18.79656 37.68008 18.69787 37.19633 19.1517C 36.71634 19.59357 38.09353 19.59357 39.05951 19.21301C 40.02624 18.82946 40.24082 18.73301 41.30849 18.66796C 42.36045 18.60591 41.36755 19.24815 41.88419 19.47095C 42.39933 19.69525 44.99522 19.18161 44.32307 19.59357C 43.65166 20.016 45.60905 20.016 44.25727 20.40179C 42.90849 20.78609 30.26849 22.19992 20.58325 28.54983C 10.89353 34.90273 9.610542 48.05114 26.10176 44.78161C 38.12419 42.39507 43.15447 36.90572 44.99522 34.10871L44.99522 34.10871L44.99522 37.88217L45.0483 37.88217z" stroke="none" fill="#929497" fill-rule="nonzero" />
    <path transform="matrix(1 0 0 1 0 0)"  d="M23.97264 33.40217C 23.97264 29.05675 27.48815 25.53899 31.82759 25.53899C 36.17376 25.53899 39.69226 29.05675 39.69226 33.40217C 39.69226 37.74086 36.17376 41.25787 31.82759 41.25787C 27.48815 41.25787 23.97264 37.74086 23.97264 33.40217" stroke="none" fill="#F58A1E" fill-rule="nonzero" />
    <path transform="matrix(1 0 0 1 0 0)"  d="M26.50116 29.97787C 26.1535 29.20478 26.50789 28.29263 27.27873 27.94572C 28.06228 27.60329 28.96994 27.95095 29.31686 28.72778C 29.66602 29.50385 29.31686 30.416 28.53854 30.76142C 27.76022 31.10834 26.84508 30.75544 26.50116 29.97787" stroke="none" fill="#FEFEFE" fill-rule="nonzero" />
    <path transform="matrix(1 0 0 1 0 0)"  d="M44.03178 15.20127C 44.03178 14.84763 42.52374 14.81996 42.30093 15.14071C 42.07738 15.45996 41.27514 15.33361 41.20785 15.61847C 41.15028 15.91305 41.88449 15.84127 42.52374 15.5923C 43.16972 15.33361 44.03178 15.55641 44.03178 15.20127" stroke="none" fill="#929497" fill-rule="nonzero" />
    <path transform="matrix(1 0 0 1 0 0)"  d="M45.15551 16.19641C 44.93271 15.94146 43.45383 15.84127 43.00224 16.06707C 42.55589 16.2951 41.97869 16.52015 41.6886 16.52015C 41.40075 16.52015 41.81944 16.8723 42.58878 16.8723C 43.35813 16.8723 43.26093 16.67791 44.03178 16.80725C 44.79963 16.9366 45.37533 16.45809 45.15551 16.19641" stroke="none" fill="#929497" fill-rule="nonzero" />
    <path transform="matrix(1 0 0 1 0 0)"  d="M43.00232 17.54318C 42.20531 17.73757 42.01391 17.83477 41.59596 17.93271C 41.17279 18.02617 41.56157 18.34841 42.49092 18.15477C 43.42624 17.96561 43.71035 17.89907 44.15895 17.86991C 44.61054 17.83477 44.54475 17.41832 43.99895 17.38467C 43.45615 17.35477 43.00232 17.54318 43.00232 17.54318" stroke="none" fill="#929497" fill-rule="nonzero" />
    <path transform="matrix(1 0 0 1 0 0)"  d="M46.40479 17.25518C 46.16254 16.89032 45.41039 17.12733 45.0889 17.31948C 44.77488 17.51536 44.83394 17.54303 45.37525 17.63873C 45.92628 17.73817 46.42123 17.41817 46.40479 17.25518" stroke="none" fill="#929497" fill-rule="nonzero" />
    <path transform="matrix(1 0 0 1 0 0)"  d="M48.39365 17.99402C 48.19477 17.89907 46.59701 18.12337 46.34206 18.06056C 46.08261 17.99402 45.73346 18.31477 45.18617 18.31477C 44.64262 18.31477 43.77533 18.34991 44.09607 18.70056C 44.42056 19.05271 45.8 18.8628 46.40486 18.72972C 47.01869 18.60561 47.65794 18.31477 48.23514 18.44486C 48.80935 18.57121 48.47813 18.01645 48.39365 17.99402" stroke="none" fill="#929497" fill-rule="nonzero" />
    <path transform="matrix(1 0 0 1 0 0)"  d="M2.77757 33.52449L22.15178 33.52449L22.15178 32.81794L2.77757 32.81794L2.77757 33.52449" stroke="none" fill="#231F20" fill-rule="nonzero" />
    <path transform="matrix(1 0 0 1 0 0)"  d="M31.49458 63.06916L32.19365 63.06916L32.19365 43.6972L31.49458 43.6972L31.49458 63.06916" stroke="none" fill="#231F20" fill-rule="nonzero" />
    <path transform="matrix(1 0 0 1 0 0)"  d="M31.49458 22.90019L32.19365 22.90019L32.19365 3.530467L31.49458 3.530467L31.49458 22.90019" stroke="none" fill="#231F20" fill-rule="nonzero" />
    <path transform="matrix(1 0 0 1 0 0)"  d="M55.69421 33.55066L111.831 33.55066L111.831 32.84411L55.69421 32.84411L55.69421 33.55066" stroke="none" fill="#231F20" fill-rule="nonzero" />
    <path transform="matrix(1 0 0 1 0 0)"  d="M111.7735 33.19484C 111.7735 32.41877 112.4097 31.78475 113.1888 31.78475C 113.9708 31.78475 114.6011 32.41877 114.6011 33.19484C 114.6011 33.9769 113.9708 34.60867 113.1888 34.60867C 112.4097 34.60867 111.7735 33.9769 111.7735 33.19484" stroke="none" fill="#D72C24" fill-rule="nonzero" />
    <path transform="matrix(1 0 0 1 0 0)"  d="M30.43222 2.157308C 30.43222 1.380486 31.05353 0.747215 31.84157 0.747215C 32.62064 0.747215 33.25316 1.380486 33.25316 2.157308C 33.25316 2.938617 32.62064 3.574878 31.84157 3.574878C 31.05353 3.574878 30.43222 2.938617 30.43222 2.157308" stroke="none" fill="#D72C24" fill-rule="nonzero" />
    <path transform="matrix(1 0 0 1 0 0)"  d="M50.18251 58.34744C 50.18251 57.9123 50.06662 57.57361 49.83484 57.32314C 49.5926 57.07492 49.23297 56.94931 48.74549 56.94931L48.74549 56.94931L45.53876 56.94931L45.53876 59.78071L48.72381 59.78071C 49.2225 59.78071 49.5926 59.64688 49.83484 59.37772C 50.06662 59.10408 50.18251 58.76389 50.18251 58.34744M49.84606 52.73323C 49.84606 52.41323 49.76157 52.13585 49.5754 51.91006C 49.39746 51.69024 49.06849 51.5766 48.5825 51.5766L48.5825 51.5766L45.53876 51.5766L45.53876 53.89286L48.5825 53.89286C 49.05428 53.89286 49.38475 53.78519 49.57092 53.57062C 49.75858 53.36426 49.84606 53.08389 49.84606 52.73323M54.14064 58.26968C 54.14064 59.768 53.6868 60.9209 52.78662 61.73809C 51.8812 62.56127 50.50849 62.96949 48.66101 62.96949L48.66101 62.96949L41.66438 62.96949L41.66438 48.39305L48.70662 48.39305C 50.50849 48.39305 51.81017 48.71903 52.61092 49.3695C 53.40643 50.02669 53.80867 50.96426 53.80867 52.18893C 53.80867 52.98295 53.63671 53.59081 53.29353 54.00426C 52.95708 54.42146 52.54437 54.77062 52.0554 55.04725C 52.72381 55.3209 53.24344 55.7209 53.59634 56.24426C 53.96045 56.7594 54.14064 57.43903 54.14064 58.26968" stroke="none" fill="#231F20" fill-rule="nonzero" />
    <path transform="matrix(1 0 0 1 0 0)"  d="M55.75925 62.96897L59.89234 62.96897L59.89234 48.39252L55.75925 48.39252L55.75925 62.96897" stroke="none" fill="#231F20" fill-rule="nonzero" />
    <path transform="matrix(1 0 0 1 0 0)"  d="M71.50841 62.9692L68.02804 58.15649C 67.85981 57.93368 67.67439 57.66079 67.44711 57.3348C 67.22355 57.00808 66.9985 56.68135 66.78916 56.35611C 66.57607 56.03163 66.37794 55.71835 66.18579 55.42527C 66.00486 55.13892 65.85233 54.90938 65.75664 54.74265C 65.78729 54.90938 65.80299 55.13966 65.81944 55.43948C 65.83439 55.74303 65.84934 56.06527 65.85981 56.41966C 65.8785 56.77256 65.88523 57.13667 65.88523 57.51125L65.88523 57.51125L65.88523 58.50938L65.88523 62.9692L62.00935 62.9692L62.00935 48.39275L65.57196 48.39275L68.78019 52.70378C 68.94467 52.92134 69.1458 53.19873 69.37159 53.53817C 69.60187 53.86565 69.82841 54.1991 70.04897 54.5363C 70.27477 54.86452 70.47215 55.18303 70.65159 55.47312C 70.83551 55.76247 70.9671 55.98527 71.05009 56.1363C 71.02318 55.97107 70.9985 55.74303 70.98953 55.43948C 70.97533 55.13966 70.95963 54.81817 70.93944 54.46228C 70.93196 54.1034 70.92448 53.74452 70.92448 53.36845L70.92448 53.36845L70.92448 52.36658L70.92448 48.39275L74.79888 48.39275L74.79888 62.9692L71.50841 62.9692z" stroke="none" fill="#231F20" fill-rule="nonzero" />
    <path transform="matrix(1 0 0 1 0 0)"  d="M89.03327 59.69892C 88.70729 60.51686 88.25196 61.18826 87.67402 61.70639C 87.09907 62.22602 86.42393 62.60658 85.63589 62.8406C 84.8471 63.07611 84.00374 63.19574 83.0871 63.19574C 82.16747 63.19574 81.31963 63.07611 80.5443 62.8406C 79.76823 62.60658 79.09608 62.22602 78.53383 61.70639C 77.97682 61.18826 77.53345 60.51686 77.21495 59.69892C 76.88747 58.88396 76.73495 57.88957 76.73495 56.74415L76.73495 56.74415L76.73495 48.39499L80.85458 48.39499L80.85458 56.74415C 80.85458 57.64359 81.04224 58.35537 81.40561 58.86527C 81.78243 59.38116 82.35365 59.63611 83.14692 59.63611C 83.93794 59.63611 84.51364 59.38116 84.86504 58.86527C 85.21794 58.35537 85.39664 57.64359 85.39664 56.74415L85.39664 56.74415L85.39664 48.39499L89.52299 48.39499L89.52299 56.74415C 89.52299 57.88957 89.35776 58.88396 89.03327 59.69892" stroke="none" fill="#231F20" fill-rule="nonzero" />
    <path transform="matrix(1 0 0 1 0 0)"  d="M103.0549 58.49346C 103.0549 59.3271 102.9061 60.03439 102.604 60.63701C 102.3072 61.2314 101.893 61.71888 101.3517 62.09346C 100.8253 62.4628 100.1913 62.74617 99.45488 62.92785C 98.71619 63.10729 97.91095 63.19851 97.03918 63.19851C 95.85862 63.19851 94.7289 63.02505 93.656 62.68561C 92.57936 62.34467 91.65974 61.92673 90.88965 61.42804L90.88965 61.42804L92.85226 58.26093C 93.11095 58.44336 93.42497 58.62056 93.78011 58.78953C 94.12927 58.96897 94.49862 59.12673 94.88367 59.25832C 95.26273 59.39963 95.65002 59.50654 96.03656 59.59476C 96.42759 59.67701 96.78647 59.72112 97.11993 59.72112C 97.83768 59.72112 98.34161 59.6486 98.60852 59.50654C 98.88068 59.37495 99.01899 59.12972 99.01899 58.7828C 99.01899 58.64748 98.97787 58.51738 98.90534 58.40748C 98.82684 58.29757 98.68852 58.18841 98.50236 58.08448C 98.31469 57.97832 98.06946 57.87664 97.74722 57.76897C 97.42497 57.66879 97.02348 57.55888 96.5375 57.44972C 95.66572 57.24262 94.89563 57.02056 94.25114 56.7843C 93.59245 56.54879 93.04815 56.24972 92.62721 55.89682C 92.19283 55.54467 91.86909 55.12 91.65226 54.61159C 91.43768 54.11589 91.33226 53.50056 91.33226 52.76411C 91.33226 52.08673 91.46535 51.45944 91.73675 50.88972C 92.00964 50.31701 92.39544 49.83551 92.89638 49.43327C 93.38983 49.03103 93.99245 48.71925 94.70198 48.49495C 95.41002 48.2714 96.20329 48.16075 97.07731 48.16075C 98.33114 48.16075 99.41226 48.30654 100.3371 48.59813C 101.2575 48.89047 102.1106 49.30617 102.8867 49.84673L102.8867 49.84673L100.927 53.01159C 100.2795 52.57122 99.62983 52.22729 98.97263 51.99551C 98.31992 51.75551 97.61861 51.63888 96.86871 51.63888C 96.25712 51.63888 95.85862 51.72262 95.66572 51.88486C 95.47282 52.05682 95.37563 52.2714 95.37563 52.53608C 95.37563 52.6714 95.41002 52.79701 95.48778 52.89645C 95.55881 53.00112 95.69338 53.09981 95.86684 53.19028C 96.05151 53.27626 96.29675 53.37196 96.59581 53.46243C 96.90235 53.5514 97.29562 53.65308 97.76665 53.76523C 98.68179 53.98729 99.47507 54.2258 100.1405 54.49047C 100.8052 54.75738 101.3517 55.06467 101.7801 55.42804C 102.2145 55.78991 102.5353 56.22281 102.7416 56.72C 102.9502 57.22168 103.0549 57.80785 103.0549 58.49346" stroke="none" fill="#231F20" fill-rule="nonzero" />
    <path transform="matrix(1 0 0 1 0 0)"  d="M45.19641 79.07828C 43.48949 79.07828 42.00314 78.36427 41.22707 77.22557L41.22707 77.22557L42.69996 75.91267C 43.41473 76.74332 44.33585 77.07977 45.3123 77.07977C 46.52052 77.07977 47.09099 76.74332 47.09099 75.97249C 47.09099 75.31454 46.74109 75.02221 44.81585 74.58557C 42.93623 74.14669 41.62108 73.54856 41.62108 71.53735C 41.62108 69.68464 43.25548 68.54819 45.26894 68.54819C 46.85772 68.54819 48.02482 69.14482 48.98781 70.15192L48.98781 70.15192L47.51566 71.58071C 46.85772 70.91006 46.12725 70.53099 45.19641 70.53099C 44.09959 70.53099 43.73548 70.99754 43.73548 71.44987C 43.73548 72.09211 44.17361 72.29473 45.79604 72.67455C 47.41249 73.05435 49.20763 73.60987 49.20763 75.8237C 49.20763 77.76613 47.98295 79.07828 45.19641 79.07828" stroke="none" fill="#F26F3A" fill-rule="nonzero" />
    <path transform="matrix(1 0 0 1 0 0)"  d="M55.26213 70.57585C 53.61204 70.57585 52.92718 71.98969 52.92718 73.81323C 52.92718 75.68015 53.65615 77.15305 55.30325 77.15305C 55.41914 77.15305 55.53951 77.1366 55.64194 77.12389L55.64194 77.12389L54.95036 76.10183L56.51447 75.08052L57.16942 76.05697C 57.48942 75.49024 57.59409 74.6723 57.59409 73.81323C 57.59409 71.98969 56.90624 70.57585 55.26213 70.57585M58.30662 77.73622L59.06699 78.8465L57.50811 79.86557L56.7754 78.80164C 56.3111 78.99006 55.82662 79.07828 55.26213 79.07828C 52.4726 79.07828 50.824 76.91903 50.824 73.81323C 50.824 70.70818 52.4726 68.54819 55.26213 68.54819C 58.04568 68.54819 59.69353 70.70818 59.69353 73.81323C 59.69353 75.56277 59.19633 76.81734 58.30662 77.73622" stroke="none" fill="#F26F3A" fill-rule="nonzero" />
    <path transform="matrix(1 0 0 1 0 0)"  d="M65.83454 79.07828C 63.37024 79.07828 61.70669 77.41697 61.70669 74.43903L61.70669 74.43903L61.70669 68.70893L63.74856 68.70893L63.74856 74.40912C 63.74856 76.04426 64.53809 77.07977 65.83454 77.07977C 67.13024 77.07977 67.93398 76.07267 67.93398 74.43903L67.93398 74.43903L67.93398 68.70893L69.9766 68.70893L69.9766 74.40912C 69.9766 77.37136 68.43043 79.07828 65.83454 79.07828" stroke="none" fill="#F26F3A" fill-rule="nonzero" />
    <path transform="matrix(1 0 0 1 0 0)"  d="M77.16561 72.85024C 76.96374 72.25286 76.75963 71.63903 76.6557 71.25922C 76.55476 71.63903 76.35065 72.25286 76.14729 72.85024L76.14729 72.85024L75.49159 74.70295L77.82505 74.70295L77.16561 72.85024zM79.32635 78.91753L78.52486 76.64165L74.79103 76.64165L73.98729 78.91753L71.80187 78.91753L75.70916 68.70893L77.69122 68.70893L81.57159 78.91753L79.32635 78.91753z" stroke="none" fill="#F26F3A" fill-rule="nonzero" />
    <path transform="matrix(1 0 0 1 0 0)"  d="M88.18049 70.69189L85.50909 70.69189L85.50909 73.31618L88.18049 73.31618C 89.12703 73.31618 89.63992 72.87881 89.63992 71.98908C 89.63992 71.07095 89.08516 70.69189 88.18049 70.69189zM89.39095 78.91768L87.56889 75.24216L85.50909 75.24216L85.50909 78.91768L83.47021 78.91768L83.47021 68.70908L88.22684 68.70908C 90.14909 68.70908 91.73787 69.77301 91.73787 71.94422C 91.73787 73.47619 91.08441 74.43918 89.78348 74.94833L89.78348 74.94833L91.73787 78.91768L89.39095 78.91768z" stroke="none" fill="#F26F3A" fill-rule="nonzero" />
    <path transform="matrix(1 0 0 1 0 0)"  d="M93.88217 78.91768L93.88217 68.70908L100.9708 68.70908L100.9708 70.70834L95.92329 70.70834L95.92329 72.46983L98.85413 72.46983L98.85413 74.45488L95.92329 74.45488L95.92329 76.91917L101.1883 76.91917L101.1883 78.91768L93.88217 78.91768" stroke="none" fill="#F26F3A" fill-rule="nonzero" />
    <path transform="matrix(1 0 0 1 0 0)"  d="M30.44606 64.43753C 30.44606 63.65772 31.07708 63.02146 31.85615 63.02146C 32.63372 63.02146 33.26475 63.65772 33.26475 64.43753C 33.26475 65.21585 32.63372 65.84912 31.85615 65.84912C 31.07708 65.84912 30.44606 65.21585 30.44606 64.43753" stroke="none" fill="#D72C24" fill-rule="nonzero" />
    <path transform="matrix(1 0 0 1 0 0)"  d="M0 33.17144C 0 32.39237 0.6280374 31.7606 1.406355 31.7606C 2.193645 31.7606 2.820935 32.39237 2.820935 33.17144C 2.820935 33.95125 2.193645 34.58377 1.406355 34.58377C 0.6280374 34.58377 0 33.95125 0 33.17144" stroke="none" fill="#D72C24" fill-rule="nonzero" />
</g>
</svg>